<?xml version="1.0" encoding="UTF-8" standalone="no"?>
<!-- Created with Inkscape (http://www.inkscape.org/) -->

<svg
   xmlns:dc="http://purl.org/dc/elements/1.1/"
   xmlns:cc="http://creativecommons.org/ns#"
   xmlns:rdf="http://www.w3.org/1999/02/22-rdf-syntax-ns#"
   xmlns:svg="http://www.w3.org/2000/svg"
   xmlns="http://www.w3.org/2000/svg"
   xmlns:sodipodi="http://sodipodi.sourceforge.net/DTD/sodipodi-0.dtd"
   xmlns:inkscape="http://www.inkscape.org/namespaces/inkscape"
   width="38.707764mm"
   height="34.376324mm"
   viewBox="0 0 38.707764 34.376324"
   version="1.1"
   id="svg5223"
   inkscape:version="0.92.3 (2405546, 2018-03-11)"
   sodipodi:docname="undraw_Memory_storage_reh0.svg">
  <defs
     id="defs5217" />
  <sodipodi:namedview
     id="base"
     pagecolor="#ffffff"
     bordercolor="#666666"
     borderopacity="1.0"
     inkscape:pageopacity="0.0"
     inkscape:pageshadow="2"
     inkscape:zoom="0.35"
     inkscape:cx="98.862815"
     inkscape:cy="73.534558"
     inkscape:document-units="mm"
     inkscape:current-layer="layer1"
     showgrid="false"
     inkscape:window-width="1366"
     inkscape:window-height="719"
     inkscape:window-x="0"
     inkscape:window-y="25"
     inkscape:window-maximized="1" />
  <metadata
     id="metadata5220">
    <rdf:RDF>
      <cc:Work
         rdf:about="">
        <dc:format>image/svg+xml</dc:format>
        <dc:type
           rdf:resource="http://purl.org/dc/dcmitype/StillImage" />
        <dc:title></dc:title>
      </cc:Work>
    </rdf:RDF>
  </metadata>
  <g
     inkscape:label="Layer 1"
     inkscape:groupmode="layer"
     id="layer1"
     transform="translate(-79.67588,-133.91303)">
    <g
       id="g1104"
       transform="matrix(0.94728086,0,0,0.94728086,25.960663,38.40114)"
       inkscape:export-filename="/home/ilhamst/Downloads/Images/Flat Illustration/undraw_Memory_storage_reh0.svg.png"
       inkscape:export-xdpi="328.09952"
       inkscape:export-ydpi="328.09952">
      <path
         sodipodi:nodetypes="cssscsc"
         inkscape:connector-curvature="0"
         id="path1055"
         d="m 57.981108,120.52065 c 0,0 2.443163,-7.83836 9.166029,-11.31609 6.722866,-3.47774 12.654739,-1.82515 18.322421,-6.3443 5.667682,-4.519145 9.062508,-0.78484 11.099403,4.19424 2.036895,4.97908 0.905288,14.03195 -2.942181,17.42677 -2.715861,2.71587 -13.466144,10.18448 -26.027,9.16603 -12.560855,-1.01844 -9.618672,-13.12665 -9.618672,-13.12665 z"
         style="fill:#f6f8fd;fill-opacity:1;stroke:none;stroke-width:0.22404706px;stroke-linecap:butt;stroke-linejoin:miter;stroke-opacity:1" />
      <g
         transform="matrix(0.04263095,0,0,0.04263095,56.704637,101.81847)"
         id="g997">
        <ellipse
           style="fill:#e7edfd;fill-opacity:1"
           cx="400.98059"
           cy="776"
           rx="294"
           ry="52"
           id="ellipse855" />
        <path
           style="fill:none;stroke:#3f3d56;stroke-width:2;stroke-miterlimit:10"
           inkscape:connector-curvature="0"
           d="m 359.17389,322.2052 c 0,-75.75611 111.08263,-137.16857 248.11,-137.16857 137.02737,0 248.11,61.41246 248.11,137.16857"
           transform="translate(-203.21014,-36)"
           stroke-miterlimit="10"
           id="path857" />
        <path
           style="fill:#e6e6e6"
           inkscape:connector-curvature="0"
           d="M 685.2975,237.85074 H 483.44675 Q 423.562,136.92537 483.44675,36 H 685.2975 q -83.73287,100.92537 0,201.85074 z"
           transform="translate(-203.21014,-36)"
           id="path859" />
        <rect
           style="fill:#00aad4;fill-opacity:1"
           x="309.07245"
           y="24.02985"
           width="113.74129"
           height="14.41791"
           id="rect861" />
        <rect
           style="fill:#ffffff"
           x="272.22668"
           y="71.288559"
           width="150.58707"
           height="4.8059702"
           id="rect863" />
        <rect
           style="fill:#ffffff"
           x="272.22668"
           y="96.1194"
           width="150.58707"
           height="4.8059702"
           id="rect865" />
        <rect
           style="fill:#ffffff"
           x="272.22668"
           y="120.95025"
           width="150.58707"
           height="4.8059702"
           id="rect867" />
        <path
           style="fill:#3f3d56"
           inkscape:connector-curvature="0"
           d="m 765.88672,684.65948 c 0,64.01613 40.16036,115.81717 89.79084,115.81717"
           transform="translate(-203.21014,-36)"
           id="path869" />
        <path
           style="fill:#00aad4;fill-opacity:1"
           inkscape:connector-curvature="0"
           d="m 855.67756,800.47665 c 0,-64.73541 44.81663,-117.11848 100.20137,-117.11848"
           transform="translate(-203.21014,-36)"
           id="path871" />
        <path
           style="fill:#00aad4;fill-opacity:1"
           inkscape:connector-curvature="0"
           d="m 798.41964,690.46265 c 0,60.80852 25.6095,110.014 57.25792,110.014"
           transform="translate(-203.21014,-36)"
           id="path873" />
        <path
           style="fill:#3f3d56"
           inkscape:connector-curvature="0"
           d="m 855.67756,800.47665 c 0,-82.71747 51.801,-149.65139 115.81717,-149.65139"
           transform="translate(-203.21014,-36)"
           id="path875" />
        <path
           style="fill:#a8a8a8"
           inkscape:connector-curvature="0"
           d="m 836.78788,801.29318 c 0,0 12.73382,-0.39219 16.57147,-3.12493 3.83765,-2.73274 19.58782,-5.99579 20.53985,-1.61307 0.95203,4.38272 19.13657,21.79764 4.76015,21.9136 -14.37642,0.11596 -33.4044,-2.23935 -37.23467,-4.57251 -3.83027,-2.33316 -4.6368,-12.60309 -4.6368,-12.60309 z"
           transform="translate(-203.21014,-36)"
           id="path877" />
        <path
           style="opacity:0.2"
           inkscape:connector-curvature="0"
           d="m 878.91591,816.94314 c -14.37642,0.116 -33.40439,-2.23933 -37.23466,-4.57251 -2.917,-1.77683 -4.07933,-8.15253 -4.46826,-11.094 -0.26934,0.0116 -0.4251,0.0166 -0.4251,0.0166 0,0 0.80653,10.26991 4.6368,12.60309 3.83027,2.33318 22.85824,4.6885 37.23466,4.5725 4.14991,-0.0335 5.58335,-1.50994 5.50465,-3.69673 -0.57652,1.32117 -2.15926,2.14618 -5.24809,2.17108 z"
           transform="translate(-203.21014,-36)"
           id="path879" />
        <path
           style="fill:#2f2e41"
           inkscape:connector-curvature="0"
           d="m 561.03984,193.68167 c 1.169,0.536 2.57518,-0.263 3.26431,-1.34876 2.62406,-4.13443 -2.20717,-9.46554 -1.16106,-14.24935 0.8381,-3.83254 5.19311,-6.10727 6.08355,-9.928 0.8652,-3.71246 -1.8008,-7.897 10e-4,-11.25619 1.41173,-2.63171 4.93809,-3.32425 7.88874,-2.86321 2.95065,0.46104 5.75131,1.75814 8.73222,1.93988 3.97213,0.24218 7.75852,-1.5064 11.64257,-2.37277 3.88405,-0.86637 8.62166,-0.52716 10.90658,2.731 2.93387,4.18352 -0.0422,10.00893 0.97933,15.01551 0.81119,3.97556 4.13936,7.26743 4.21087,11.32428 0.0254,1.44192 -3.76518,0.28033 -3.5637,1.70833 0.20148,1.428 -1.59011,0.17065 -0.158,0.001 a 2.83656,2.83656 0 0 0 2.15525,-2.56349 c 0.17028,-1.18939 2.40545,-1.58586 2.37966,-2.78711 -0.0604,-2.81524 5.02939,-0.91705 5.86761,-3.60529 a 27.26083,27.26083 0 0 0 -1.11407,-19.01732 c -1.1415,-2.561 -2.69605,-4.98476 -3.24677,-7.73406 -0.74772,-3.73277 0.42879,-7.73995 -0.80445,-11.34159 -1.662,-4.85372 -7.16143,-7.328 -12.26714,-7.83054 -5.10571,-0.50254 -10.29417,0.397 -15.37075,-0.344 -4.54775,-0.66384 -8.95048,-2.63481 -13.53754,-2.34924 -5.50405,0.34266 -10.29366,3.889 -14.109,7.87087 -3.81534,3.98187 -7.05186,8.56161 -11.385,11.97279 a 22.32925,22.32925 0 0 0 -3.65052,3.14268 c -2.207,2.6895 -2.43084,6.52085 -1.81689,9.94536 0.61395,3.42451 1.94987,6.69111 2.51394,10.12419 0.53009,3.2263 0.36656,6.52246 0.59488,9.784 0.22832,3.26154 0.90531,6.622 2.86966,9.23562 a 8.71633,8.71633 0 0 0 6.78255,3.54347 c 0.91842,0.0212 1.69412,-0.80408 2.62108,-0.58889 1.15871,0.26898 1.66252,1.36931 2.69094,1.84083 z"
           transform="translate(-203.21014,-36)"
           id="path881" />
        <polygon
           style="fill:#a0616a"
           points="324.868,392.275 318.546,394.707 321.95,415.619 328.759,406.378 "
           id="polygon883" />
        <path
           style="fill:#575a89"
           inkscape:connector-curvature="0"
           d="m 526.13312,272.65061 -5.36054,14.12639 c 0,0 -5.33864,71.95337 -5.33864,77.303 0,5.34963 3.89061,73.92158 5.34959,76.83954 0,0 6.32224,-9.2402 14.58979,-7.78122 8.26755,1.45898 4.86326,-24.31631 4.86326,-24.31631 l 7.78122,-63.70874 -1.459,-32.09753 z"
           transform="translate(-203.21014,-36)"
           id="path885" />
        <path
           style="opacity:0.1"
           inkscape:connector-curvature="0"
           d="m 526.13312,272.65061 -5.36054,14.12639 c 0,0 -5.33864,71.95337 -5.33864,77.303 0,5.34963 3.89061,73.92158 5.34959,76.83954 0,0 6.32224,-9.2402 14.58979,-7.78122 8.26755,1.45898 4.86326,-24.31631 4.86326,-24.31631 l 7.78122,-63.70874 -1.459,-32.09753 z"
           transform="translate(-203.21014,-36)"
           id="path887" />
        <path
           style="fill:#a0616a"
           inkscape:connector-curvature="0"
           d="m 559.2033,194.83842 c 0,0 16.04877,40.8514 6.80857,48.63262 -9.2402,7.78122 51.55058,-13.13081 51.55058,-13.13081 l -1.459,-5.34959 c 0,0 -19.93937,-7.78122 -10.21285,-30.15222 9.72652,-22.371 -46.6873,0 -46.6873,0 z"
           transform="translate(-203.21014,-36)"
           id="path889" />
        <path
           style="opacity:0.1"
           inkscape:connector-curvature="0"
           d="m 559.2033,194.83842 c 0,0 16.04877,40.8514 6.80857,48.63262 -9.2402,7.78122 51.55058,-13.13081 51.55058,-13.13081 l -1.459,-5.34959 c 0,0 -19.93937,-7.78122 -10.21285,-30.15222 9.72652,-22.371 -46.6873,0 -46.6873,0 z"
           transform="translate(-203.21014,-36)"
           id="path891" />
        <path
           style="fill:#575a89"
           inkscape:connector-curvature="0"
           d="m 533.91434,740.49646 c 0,0 -6.80857,-1.94531 -10.69918,2.918 -3.89061,4.86331 -18.48039,17.02142 -18.48039,17.02142 0,0 -28.20693,-2.918 -32.09754,11.1855 -3.89061,14.1035 44.25569,14.10347 55.92752,10.69918 11.67183,-3.40429 14.10346,0 14.10346,0 0,0 35.98814,2.918 35.98814,-2.918 0,-5.836 -3.40428,-25.77529 -3.40428,-25.77529 z"
           transform="translate(-203.21014,-36)"
           id="path893" />
        <path
           style="fill:#575a89"
           inkscape:connector-curvature="0"
           d="m 648.201,773.08031 -6.32225,19.453 c 0,0 -18.96675,26.26169 -8.26753,31.61126 10.69922,5.34957 48.63262,10.69918 48.63262,-3.40429 v -26.74794 c 0,0 -3.89061,-18.96672 -7.78122,-20.912 -3.89061,-1.94528 -26.26162,-3e-5 -26.26162,-3e-5 z"
           transform="translate(-203.21014,-36)"
           id="path895" />
        <path
           style="fill:#2f2e41"
           inkscape:connector-curvature="0"
           d="m 540.80155,423.59059 c 0,0 -20.50434,17.81523 -20.018,20.24686 0.48634,2.43163 10.21283,158.54235 10.21283,158.54235 l 5.34962,101.15586 c 0,0 -6.80857,23.83 -3.40428,29.17958 3.40429,5.34958 -4.86327,6.80856 -4.86327,6.80856 0,0 35.01549,31.61121 49.60528,17.99407 L 591.30087,580.98145 628.748,709.37158 c 0,0 6.32224,68.08567 13.61713,68.08567 7.29489,0 36.9608,1.459 36.47447,-2.43163 -0.48633,-3.89063 1.459,-33.55651 -1.94531,-51.06426 -3.40431,-17.50775 -26.26161,-156.11072 -26.26161,-156.11072 0,0 -1.96507,-118.82188 3.15124,-129.92824 5.11631,-11.10636 -2.66492,-22.7782 -2.66492,-22.7782 l -34.04283,-13.13081 -40.85141,4.86327 z"
           transform="translate(-203.21014,-36)"
           id="path897" />
        <circle
           style="fill:#a0616a"
           cx="378.85049"
           cy="141.33067"
           r="34.042839"
           id="circle899" />
        <path
           style="fill:#575a89"
           inkscape:connector-curvature="0"
           d="m 664.7361,250.76593 a 30.53711,30.53711 0 0 0 -21.39836,-19.453 188.628,188.628 0 0 1 -28.69324,-9.72652 c 0,0 -34.52917,16.53509 -41.33773,16.53509 -6.80856,0 -6.80857,-4.37694 -6.80857,-4.37694 0,0 -17.50775,18.4804 -26.74795,20.42571 -9.2402,1.94531 -22.85733,24.80263 -17.99407,37.44712 a 70.56789,70.56789 0 0 0 14.10346,21.88461 c 0,0 -1.9453,68.08567 4.37694,80.73015 0,0 -15.56244,29.6659 -0.97265,31.61121 14.58979,1.94531 70.5173,-4.86326 80.24383,1.9453 9.72653,6.80856 27.72059,-1.459 30.15222,7.78122 2.43163,9.24022 7.78122,11.18551 7.78122,11.18551 0,0 8.26755,-13.13081 3.40429,-20.912 -4.86326,-7.78119 3.89061,-175.07746 3.89061,-175.07746 z"
           transform="translate(-203.21014,-36)"
           id="path901" />
        <path
           style="fill:#a0616a"
           inkscape:connector-curvature="0"
           d="m 628.748,433.6246 -7.78122,4.86326 c 0,0 8.26754,28.69325 11.67183,29.6659 3.40429,0.97265 11.41739,-24.53444 11.41739,-24.53444 z"
           transform="translate(-203.21014,-36)"
           id="path903" />
        <path
           style="fill:#2f2e41"
           inkscape:connector-curvature="0"
           d="m 555.20393,190.27739 c 1.169,0.536 2.57517,-0.263 3.2643,-1.34877 2.62407,-4.13442 -2.20717,-9.46554 -1.161,-14.24935 0.83809,-3.83254 5.19311,-6.10726 6.08354,-9.928 0.86521,-3.71245 -1.80079,-7.897 10e-4,-11.25618 1.41173,-2.63171 4.93809,-3.32426 7.88874,-2.86322 2.95065,0.46104 5.7513,1.75814 8.73222,1.93989 3.97212,0.24217 7.75851,-1.50641 11.64256,-2.37277 3.88405,-0.86636 8.62167,-0.52717 10.90659,2.731 2.93387,4.18351 -0.0422,10.00892 0.97932,15.0155 0.81119,3.97557 10.0535,6.766 10.89171,4.07773 A 27.26075,27.26075 0 0 0 613.319,153.00591 c -1.14149,-2.561 -2.696,-4.98476 -3.24676,-7.73406 -0.74772,-3.73277 0.42878,-7.73995 -0.80445,-11.34159 -1.662,-4.85372 -7.16144,-7.328 -12.26714,-7.83054 -5.1057,-0.50254 -10.29418,0.397 -15.37075,-0.344 -4.54775,-0.66385 -8.95048,-2.63481 -13.53755,-2.34924 -5.50405,0.34266 -10.29365,3.889 -14.109,7.87086 -3.81535,3.98186 -7.05186,8.56162 -11.385,11.97279 a 22.32931,22.32931 0 0 0 -3.65052,3.14269 c -2.207,2.6895 -2.43085,6.52085 -1.81689,9.94536 0.61396,3.42451 1.94987,6.69111 2.51393,10.12419 0.5301,3.22629 0.36656,6.52245 0.59488,9.784 0.22832,3.26155 0.90532,6.622 2.86967,9.23561 a 8.71634,8.71634 0 0 0 6.78255,3.54348 c 0.91841,0.0212 1.69411,-0.80409 2.62107,-0.58889 1.15866,0.26897 1.66247,1.3693 2.69089,1.84082 z"
           transform="translate(-203.21014,-36)"
           id="path905" />
        <path
           style="opacity:0.1"
           inkscape:connector-curvature="0"
           d="m 645.52621,259.27664 15.8056,-8.51071 c 0,0 38.41978,91.42934 29.17958,116.7183 -9.2402,25.28896 -44.742,77.32587 -44.742,77.32587 0,0 -28.20692,-5.83591 -25.289,-11.67183 2.91792,-5.83592 21.88468,-43.283 23.34366,-48.1463 1.45898,-4.8633 11.1855,-36.47446 6.80857,-39.87875 -4.37693,-3.40429 -12.88762,-82.43229 -12.88762,-82.43229 z"
           transform="translate(-203.21014,-36)"
           id="path907" />
        <path
           style="fill:#575a89"
           inkscape:connector-curvature="0"
           d="m 645.28305,245.41634 19.453,5.34959 c 0,0 38.41977,91.42934 29.17957,116.7183 -9.2402,25.28896 -44.742,77.32587 -44.742,77.32587 0,0 -28.20692,-5.83591 -25.289,-11.67183 2.91792,-5.83592 21.88468,-43.283 23.34366,-48.1463 1.45898,-4.8633 11.18551,-36.47446 6.80857,-39.87875 -4.37694,-3.40429 -25.289,-87.53872 -25.289,-87.53872 z"
           transform="translate(-203.21014,-36)"
           id="path909" />
        <path
           style="fill:none;stroke:#3f3d56;stroke-width:2;stroke-miterlimit:10"
           inkscape:connector-curvature="0"
           d="m 855.39385,322.2052 c 0,79.425 -111.08262,143.81163 -248.11,143.81163 -137.02738,0 -248.11,-64.38666 -248.11,-143.81163"
           transform="translate(-203.21014,-36)"
           stroke-miterlimit="10"
           id="path911" />
        <path
           style="fill:none;stroke:#3f3d56;stroke-width:2;stroke-miterlimit:10"
           inkscape:connector-curvature="0"
           d="m 810.26354,468.05793 c -55.45907,29.91083 -127.8227,48.011 -206.98144,48.011 -75.89677,0 -145.54691,-16.63914 -200.04,-44.37389"
           transform="translate(-203.21014,-36)"
           stroke-miterlimit="10"
           id="path913" />
        <path
           style="fill:none;stroke:#3f3d56;stroke-width:2;stroke-miterlimit:10"
           inkscape:connector-curvature="0"
           d="m 731.188,147.90572 c 105.54421,27.741 180.712,88.76157 187.70175,160.63026"
           transform="translate(-203.21014,-36)"
           stroke-miterlimit="10"
           id="path915" />
        <path
           style="fill:none;stroke:#3f3d56;stroke-width:2;stroke-miterlimit:10"
           inkscape:connector-curvature="0"
           d="m 302.37337,261.82294 c 17.78361,-32.68552 50.27112,-61.45009 92.83643,-83.54855"
           transform="translate(-203.21014,-36)"
           stroke-miterlimit="10"
           id="path917" />
        <path
           style="fill:#f2f2f2"
           inkscape:connector-curvature="0"
           d="m 520.56793,611.70682 h 201.85074 q 59.88471,-100.92537 0,-201.85074 H 520.56793 q 83.73287,100.92537 0,201.85074 z"
           transform="translate(-203.21014,-36)"
           id="path919" />
        <rect
           style="fill:#00aad4;fill-opacity:1"
           x="384.14594"
           y="412.30383"
           width="113.74129"
           height="14.41791"
           id="rect921" />
        <rect
           style="fill:#ffffff"
           x="375.33496"
           y="455.55756"
           width="150.58707"
           height="4.8059702"
           id="rect923" />
        <rect
           style="fill:#ffffff"
           x="375.33496"
           y="480.3884"
           width="150.58707"
           height="4.8059702"
           id="rect925" />
        <path
           style="fill:#f2f2f2"
           inkscape:connector-curvature="0"
           d="M 435.00323,474.6996 H 233.15249 q -59.88471,-100.92537 0,-201.85074 h 201.85074 q -83.73285,100.92537 0,201.85074 z"
           transform="translate(-203.21014,-36)"
           id="path927" />
        <rect
           style="fill:#00aad4;fill-opacity:1"
           x="52.37022"
           y="260.87872"
           width="113.74129"
           height="14.41791"
           id="rect929" />
        <rect
           style="fill:#ffffff"
           x="27.53937"
           y="300.92847"
           width="150.58707"
           height="4.8059702"
           id="rect931" />
        <rect
           style="fill:#ffffff"
           x="27.53937"
           y="325.75931"
           width="150.58707"
           height="4.8059702"
           id="rect933" />
        <rect
           style="fill:#ffffff"
           x="27.53937"
           y="350.59015"
           width="150.58707"
           height="4.8059702"
           id="rect935" />
        <rect
           style="fill:#ffffff"
           x="27.53937"
           y="375.42099"
           width="150.58707"
           height="4.8059702"
           id="rect937" />
        <path
           style="fill:#f2f2f2"
           inkscape:connector-curvature="0"
           d="m 764.99677,381.72016 h 201.85074 q 59.88469,-100.92537 0,-201.85074 H 764.99677 q 83.73285,100.92537 0,201.85074 z"
           transform="translate(-203.21014,-36)"
           id="path939" />
        <rect
           style="fill:#00aad4;fill-opacity:1"
           x="626.17175"
           y="163.8943"
           width="113.74129"
           height="14.41791"
           id="rect941" />
        <rect
           style="fill:#ffffff"
           x="614.15686"
           y="203.94405"
           width="150.58707"
           height="4.8059702"
           id="rect943" />
      </g>
    </g>
  </g>
</svg>
