<?xml version="1.0" standalone="no"?>
<!DOCTYPE svg PUBLIC "-//W3C//DTD SVG 20010904//EN"
 "http://www.w3.org/TR/2001/REC-SVG-20010904/DTD/svg10.dtd">
<svg version="1.0" xmlns="http://www.w3.org/2000/svg"
 width="900.000000pt" height="900.000000pt" viewBox="0 0 900.000000 900.000000"
 preserveAspectRatio="xMidYMid meet">
<metadata>
Created by potrace 1.11, written by Peter Selinger 2001-2013
</metadata>
<g transform="translate(0.000000,900.000000) scale(0.100000,-0.100000)"
fill="#000000" stroke="none">
<path d="M3325 7178 c-14 -21 -14 -24 2 -37 15 -11 15 -13 2 -8 -9 3 -22 0
-29 -6 -10 -9 -11 -9 -6 3 4 8 -6 -1 -22 -20 -17 -19 -28 -38 -25 -43 2 -4 -1
-6 -7 -5 -28 7 -340 -451 -511 -750 -189 -329 -396 -769 -484 -1027 -85 -248
-50 -367 129 -433 84 -32 129 -36 153 -15 11 10 40 70 63 133 168 460 562
1058 908 1380 244 226 364 279 509 222 97 -37 273 -172 437 -334 49 -49 92
-85 96 -81 3 4 35 49 70 98 58 82 217 285 270 345 l22 25 -120 116 c-220 213
-474 359 -625 359 -101 0 -212 -64 -389 -223 -43 -38 -78 -65 -78 -59 0 5 7
12 15 16 10 3 14 15 11 35 -2 22 0 28 11 24 8 -3 12 -12 8 -21 -4 -12 -3 -13
10 -2 8 7 12 16 9 22 -3 5 0 17 7 26 11 14 11 15 -1 5 -10 -9 -18 -9 -34 0
-12 6 -23 12 -26 12 -25 4 -49 18 -45 26 4 5 -1 9 -9 9 -9 0 -15 6 -13 13 1 7
-12 13 -35 15 -21 2 -38 7 -38 11 0 7 -86 71 -97 71 -10 0 -54 52 -63 74 -7
17 -9 18 -9 4 -1 -16 -4 -15 -23 5 -13 12 -22 25 -20 30 4 14 -7 7 -23 -15z
m-25 -78 c0 -5 -5 -10 -11 -10 -5 0 -7 5 -4 10 3 6 8 10 11 10 2 0 4 -4 4 -10z
m407 -186 c-3 -3 -12 -4 -19 -1 -8 3 -5 6 6 6 11 1 17 -2 13 -5z m-32 -124
c-3 -5 -12 -10 -18 -10 -7 0 -6 4 3 10 19 12 23 12 15 0z"/>
<path d="M5851 6680 c-12 -21 -30 -42 -41 -45 -10 -3 -18 -11 -16 -18 1 -7 1
-9 -1 -4 -8 13 -24 7 -56 -23 -18 -16 -37 -30 -42 -30 -6 0 -17 -9 -25 -20 -8
-11 -18 -20 -23 -20 -5 0 -21 -9 -37 -20 -15 -11 -31 -16 -35 -12 -5 4 -5 1
-1 -6 4 -7 13 -9 19 -6 8 5 8 3 0 -7 -15 -15 -17 -33 -4 -24 11 6 26 -13 17
-22 -3 -3 -34 20 -68 52 -115 107 -244 175 -327 175 -64 -1 -186 -62 -296
-149 -147 -117 -424 -431 -492 -558 -9 -17 -8 -21 2 -17 7 3 16 17 20 32 5 21
8 23 17 11 8 -11 9 -10 4 5 -7 19 -6 19 12 3 21 -19 42 -22 42 -7 0 6 -4 10
-10 10 -5 0 -10 7 -10 15 0 21 3 19 43 -17 44 -42 58 -52 80 -61 9 -3 17 -13
17 -22 0 -8 9 -15 20 -15 11 0 20 -4 20 -10 0 -5 9 -10 20 -10 11 0 20 -3 20
-8 0 -4 14 -13 31 -21 23 -10 28 -16 18 -22 -15 -9 0 -12 51 -11 14 0 19 -2
13 -5 -7 -2 -13 -12 -13 -21 0 -15 -2 -15 -11 -2 -8 12 -9 10 -7 -10 1 -14 -1
-32 -6 -40 -4 -8 7 2 26 23 72 83 308 309 391 376 110 88 163 114 231 114 97
0 200 -67 376 -243 267 -269 560 -726 676 -1055 35 -100 52 -118 102 -109 64
11 131 45 166 84 44 49 54 104 32 188 -54 213 -270 675 -469 1007 -141 235
-356 534 -379 527 -5 -1 -7 1 -4 6 2 4 -5 19 -17 33 -12 14 -18 19 -14 13 6
-9 2 -11 -13 -7 -12 3 -19 11 -16 19 12 32 -13 20 -33 -16z"/>
<path d="M2815 4337 c-158 -41 -270 -161 -304 -325 -14 -68 -14 -206 0 -274
18 -88 64 -171 123 -226 97 -88 193 -118 353 -110 81 4 109 10 165 36 124 56
203 158 234 304 55 258 -46 493 -246 574 -79 32 -242 42 -325 21z m261 -162
c92 -54 134 -145 134 -293 0 -117 -17 -184 -63 -244 -62 -81 -172 -116 -274
-87 -66 18 -143 95 -169 169 -26 76 -26 234 0 309 28 82 92 145 176 172 46 15
149 2 196 -26z"/>
<path d="M3608 4321 l-33 -29 -3 -404 c-1 -222 0 -413 3 -426 12 -50 68 -76
119 -56 37 14 41 43 46 344 l5 295 109 -165 c60 -91 151 -229 202 -307 101
-153 124 -173 194 -173 44 0 75 23 85 62 3 13 4 209 3 436 l-3 414 -24 19
c-32 26 -74 24 -108 -5 l-28 -24 -5 -303 -5 -302 -207 315 c-139 211 -216 319
-233 326 -44 20 -82 14 -117 -17z"/>
<path d="M5803 4340 c-69 -14 -151 -59 -201 -110 -99 -100 -144 -257 -123
-429 18 -151 75 -257 173 -324 76 -52 130 -69 243 -74 301 -16 480 161 479
472 -1 205 -78 351 -224 425 -91 46 -233 62 -347 40z m192 -141 c71 -20 121
-63 157 -136 32 -65 33 -72 33 -188 0 -115 -1 -123 -32 -185 -53 -108 -139
-158 -254 -147 -110 10 -191 81 -223 198 -21 73 -21 214 0 275 51 151 176 223
319 183z"/>
<path d="M6575 4325 l-25 -24 0 -426 0 -426 25 -24 c32 -33 84 -33 122 -1 27
23 27 26 31 154 l4 130 67 64 c36 36 71 67 77 71 7 4 63 -73 144 -199 73 -112
144 -214 158 -224 38 -31 105 -27 131 6 42 53 31 77 -163 354 l-136 194 135
131 c126 121 135 133 135 167 0 46 -36 78 -88 78 -39 0 -24 14 -336 -308 -66
-67 -121 -122 -123 -122 -1 0 -3 73 -3 163 0 176 -9 228 -43 252 -33 23 -84
19 -112 -10z"/>
<path d="M1744 4334 c-12 -3 -32 -16 -45 -30 l-24 -26 0 -413 0 -413 24 -26
c30 -32 87 -35 122 -7 23 18 24 26 29 188 l5 168 160 5 c150 5 164 7 218 33
61 31 101 74 123 134 17 48 18 163 2 217 -17 58 -100 139 -158 155 -45 12
-414 24 -456 15z m384 -158 c70 -37 84 -164 24 -217 -43 -38 -96 -50 -204 -47
l-93 3 -3 129 c-1 72 0 136 3 144 8 22 228 13 273 -12z"/>
<path d="M4628 4333 c-15 -2 -37 -16 -48 -30 -19 -25 -20 -39 -20 -422 0 -218
3 -405 6 -416 11 -43 40 -50 211 -53 252 -6 348 16 437 99 84 77 126 198 126
364 0 115 -13 182 -52 258 -58 116 -150 180 -281 197 -70 9 -325 11 -379 3z
m367 -154 c60 -16 100 -52 132 -116 26 -54 28 -66 27 -183 -1 -136 -12 -185
-61 -248 -43 -56 -98 -74 -232 -76 l-116 -1 -3 318 -2 317 107 0 c60 0 126 -5
148 -11z"/>
<path d="M1677 3133 c-4 -3 -7 -141 -7 -305 l0 -298 40 0 40 0 0 268 c1 226 3
263 14 242 7 -14 55 -134 106 -268 l93 -243 36 3 35 3 106 262 c58 144 109
266 113 269 4 4 7 -115 7 -264 l0 -272 35 0 35 0 -2 303 -3 302 -49 3 c-33 2
-53 -2 -66 -13 -9 -8 -59 -119 -111 -245 -51 -126 -96 -226 -100 -222 -3 4
-46 108 -94 230 -49 123 -95 230 -102 238 -15 14 -114 20 -126 7z"/>
<path d="M2557 3133 c-11 -11 -8 -388 4 -442 24 -111 96 -166 219 -165 110 0
179 41 215 126 12 30 15 82 15 263 l0 226 -37 -3 -38 -3 -5 -230 c-6 -257 -10
-273 -75 -301 -76 -31 -163 -7 -200 56 -18 32 -20 55 -23 258 l-4 222 -32 0
c-18 0 -36 -3 -39 -7z"/>
<path d="M3230 2846 c0 -238 3 -296 14 -305 9 -8 60 -11 157 -9 l144 3 0 30 0
30 -117 3 -118 3 0 269 0 270 -40 0 -40 0 0 -294z"/>
<path d="M3557 3133 c-4 -3 -7 -17 -7 -29 0 -22 4 -23 93 -26 l92 -3 3 -273 2
-273 38 3 37 3 5 270 5 270 85 3 c47 2 89 7 93 11 5 5 6 18 2 30 -6 20 -12 21
-224 21 -120 0 -221 -3 -224 -7z"/>
<path d="M4152 2838 l3 -303 38 -3 37 -3 0 305 0 306 -40 0 -40 0 2 -302z"/>
<path d="M4455 3118 c-3 -13 -4 -149 -3 -303 l3 -280 38 -3 37 -3 0 267 c0
150 4 264 9 259 4 -6 50 -120 101 -255 52 -135 98 -251 103 -257 14 -19 65
-16 76 5 5 9 52 124 105 256 53 131 101 246 106 255 6 10 9 -81 10 -257 l0
-273 38 3 37 3 3 289 c2 205 -1 293 -9 302 -17 21 -102 18 -121 -3 -8 -10 -57
-119 -108 -243 -50 -124 -93 -226 -95 -228 -2 -2 -44 102 -95 230 -50 128 -99
239 -108 246 -9 6 -40 12 -69 12 -46 0 -53 -3 -58 -22z"/>
<path d="M5345 3127 c-3 -7 -4 -143 -3 -302 l3 -290 162 -3 c151 -2 162 -1
167 16 4 11 4 27 0 36 -5 14 -24 16 -130 16 l-124 0 0 110 0 109 108 3 c107 3
107 3 107 28 0 25 0 25 -107 28 l-108 3 0 99 0 100 125 0 125 0 0 30 0 30
-160 0 c-120 0 -162 -3 -165 -13z"/>
<path d="M5875 3128 c-3 -7 -4 -144 -3 -303 l3 -290 125 1 c109 0 132 3 178
23 104 47 152 135 152 281 0 137 -38 214 -132 265 -50 28 -61 30 -185 33 -105
3 -134 1 -138 -10z m274 -79 c76 -42 109 -128 98 -255 -6 -85 -41 -145 -101
-173 -36 -18 -59 -21 -121 -19 l-78 3 -3 216 c-1 119 0 227 3 239 6 22 9 22
85 17 53 -4 92 -13 117 -28z"/>
<path d="M6520 2834 l0 -305 38 3 37 3 3 303 2 302 -40 0 -40 0 0 -306z"/>
<path d="M6965 3131 c-6 -11 -215 -589 -215 -597 0 -2 17 -4 39 -4 l39 0 28
80 28 81 129 -3 130 -3 27 -75 27 -75 42 -3 c22 -2 41 0 41 5 0 4 -49 141
-108 303 l-107 295 -47 3 c-25 2 -49 -2 -53 -7z m102 -223 c33 -96 46 -145 39
-150 -14 -10 -196 -10 -196 0 -1 14 95 292 101 292 4 0 29 -64 56 -142z"/>
</g>
</svg>
